<svg xmlns="http://www.w3.org/2000/svg" xmlns:xlink="http://www.w3.org/1999/xlink" viewBox="0 0 602.35 136.91"><defs><style>.cls-1{fill:url(#linear-gradient);}.cls-2{fill:url(#linear-gradient-2);}.cls-3{fill:url(#linear-gradient-3);}.cls-4{fill:url(#linear-gradient-4);}.cls-5{fill:#231f20;}</style><linearGradient id="linear-gradient" x1="691.61" y1="-16.55" x2="691.61" y2="-81.41" gradientTransform="translate(-10.89 86.22) scale(0.86 0.82)" gradientUnits="userSpaceOnUse"><stop offset="0" stop-color="#662e5e"/><stop offset="0.17" stop-color="#c32461"/><stop offset="1" stop-color="#39b54a"/></linearGradient><linearGradient id="linear-gradient-2" x1="609.09" y1="2.78" x2="609.09" y2="-56.78" gradientTransform="translate(-27.98 62.57)" gradientUnits="userSpaceOnUse"><stop offset="0" stop-color="#662e5e"/><stop offset="0.42" stop-color="#c32461"/><stop offset="1" stop-color="#39b54a"/></linearGradient><linearGradient id="linear-gradient-3" x1="609.1" y1="-8.36" x2="609.1" y2="-56.78" gradientTransform="translate(-27.98 62.57)" xlink:href="#linear-gradient"/><linearGradient id="linear-gradient-4" x1="613.18" y1="-47.19" x2="613.18" y2="-87.26" gradientTransform="translate(-32.07 93.05)" gradientUnits="userSpaceOnUse"><stop offset="0" stop-color="#662e5e"/><stop offset="1" stop-color="#c32461"/></linearGradient></defs><g id="icon"><path class="cls-1" d="M594.84,19.73H569.09c-5.07,0-9.18,9.72-9.19,21.71v4.28c0,.82.47,1.07.62.33.35-1.74.78-3.75,1-4.68s1-2.58,1.51-2.38.59,1.37.75,2.29c1,5.75,1.38,11.92,2.31,17.69.25,1.53.39,3.59,1.33,3.65.45,0,.75-1,1.13-1.55,1.09-1.52,1.42.7,1.82,2.29.67,2.71,1,5.86,1.75,8.47h0c.34,1.18,1,1.15,1.3-.07v0l0,0c1.06-3.92,1.43-8.56,2.37-12.61.43-1.87.95-3.2,2-3,1.51.24,1.86-2.81,2.34-5.23.69-3.51,1-7.4,1.91-10.72.48-1.81,1.17-1.63,1.69.44.61,2.45,1.25,4.92,1.88,7.37l.29,1a5.85,5.85,0,0,0,.43,1.11.66.66,0,0,0,.18.19c.74.53,1.56.59,2.1,2.27a81.94,81.94,0,0,1,2,9.37A36.18,36.18,0,0,0,592.06,68c.6,1.5,1.24,1,1.83,0,.81-1.49,1.82-2.27,2.86-2.19,1.51.06,2-3,2.54-5.55.9-4,1.39-8.48,2.65-12a11.27,11.27,0,0,1,1.35-2.76l.57-.86A1.17,1.17,0,0,0,604,44V41.44C604,29.45,599.91,19.73,594.84,19.73Z" transform="translate(-6.54 -5.84)"/><path class="cls-2" d="M596.79,5.84H565.46c-6.17,0-11.17,10.93-11.18,24.42v4.81c0,.92.57,1.2.76.37.43-2,.94-4.22,1.26-5.26s1.17-2.9,1.84-2.68.72,1.54.91,2.57c1.18,6.47,1.68,13.4,2.8,19.89.31,1.73.48,4,1.63,4.11.55,0,.91-1.15,1.37-1.74,1.33-1.71,1.73.78,2.21,2.57.82,3.05,1.2,6.58,2.14,9.52h0c.41,1.33,1.18,1.29,1.58-.08v0s0,0,0,0c1.29-4.4,1.74-9.62,2.88-14.17.52-2.11,1.16-3.6,2.41-3.42,1.85.27,2.26-3.16,2.85-5.88.84-3.95,1.23-8.32,2.32-12.06.59-2,1.42-1.82,2.06.5.79,2.94,1.62,5.9,2.43,8.83l.09.27a8.8,8.8,0,0,0,.65,1.54.77.77,0,0,0,.22.22c.89.59,1.89.66,2.54,2.55a85.38,85.38,0,0,1,2.38,10.52,36.66,36.66,0,0,0,1.77,7c.72,1.68,1.5,1.16,2.22,0,1-1.68,2.22-2.56,3.47-2.47,1.85.07,2.41-3.38,3.1-6.23,1.09-4.48,1.69-9.54,3.22-13.48a12.32,12.32,0,0,1,1.64-3.1l.7-1a1.29,1.29,0,0,0,.19-.73v-2.9C608,16.76,603,5.84,596.79,5.84Z" transform="translate(-6.54 -5.84)"/><path class="cls-3" d="M596.79,5.84H565.46c-6.17,0-11.17,8.89-11.18,19.85V29.6c0,.75.57,1,.76.3.43-1.59.94-3.42,1.26-4.27s1.17-2.36,1.84-2.18.72,1.25.91,2.09c1.18,5.25,1.68,10.89,2.81,16.17.3,1.4.48,3.28,1.62,3.34.55,0,.91-.94,1.37-1.42,1.33-1.39,1.74.64,2.21,2.09.82,2.48,1.2,5.35,2.14,7.74h0c.41,1.08,1.18,1,1.58-.06v0s0,0,0,0c1.29-3.58,1.74-7.82,2.88-11.52.52-1.71,1.16-2.93,2.41-2.78,1.85.22,2.26-2.57,2.85-4.78.84-3.21,1.23-6.77,2.32-9.8.59-1.65,1.42-1.49,2.06.4.79,2.39,1.62,4.8,2.44,7.18l.09.22a5.86,5.86,0,0,0,.64,1.25.63.63,0,0,0,.22.18c.9.48,1.89.53,2.54,2.07a57.09,57.09,0,0,1,2.38,8.56A25.79,25.79,0,0,0,593.41,50c.72,1.37,1.5.95,2.22,0a4.09,4.09,0,0,1,3.47-2c1.85,0,2.41-2.75,3.1-5.07,1.09-3.64,1.69-7.76,3.22-10.95a9.55,9.55,0,0,1,1.65-2.53l.69-.78A.89.89,0,0,0,608,28V25.68C608,14.72,603,5.84,596.79,5.84Z" transform="translate(-6.54 -5.84)"/><path class="cls-4" d="M597.34,5.84H564.9c-6.38,0-11.56,7.36-11.56,16.43v3.24c0,.62.59.81.78.25.44-1.32,1-2.84,1.31-3.54s1.21-1.95,1.9-1.81.75,1,.94,1.74c1.22,4.34,1.74,9,2.91,13.38.31,1.16.5,2.71,1.68,2.76.57,0,.94-.77,1.42-1.17,1.38-1.15,1.79.53,2.29,1.73.84,2,1.24,4.43,2.21,6.4h0c.43.9,1.23.87,1.64,0v0l0,0c1.33-3,1.8-6.47,3-9.53.54-1.42,1.2-2.42,2.49-2.3,1.92.18,2.35-2.12,3-4,.88-2.65,1.28-5.6,2.4-8.11.62-1.36,1.48-1.23,2.14.33.82,2,1.68,4,2.52,5.95l.09.18a5.54,5.54,0,0,0,.67,1,.65.65,0,0,0,.23.15c.93.4,2,.44,2.63,1.72A41.94,41.94,0,0,1,592,37.68a18.24,18.24,0,0,0,1.82,4.68c.75,1.13,1.56.78,2.3,0a4.57,4.57,0,0,1,3.6-1.66c1.91,0,2.49-2.28,3.21-4.2,1.13-3,1.74-6.42,3.33-9.06a8.09,8.09,0,0,1,1.7-2.09l.72-.65a.65.65,0,0,0,.19-.49V22.26C608.9,13.19,603.72,5.84,597.34,5.84Z" transform="translate(-6.54 -5.84)"/></g><g id="Layer_1" data-name="Layer 1"><path class="cls-5" d="M6.54,139.9V29.36a.66.66,0,0,1,.66-.66H61.62q16.51,0,25.1,8.17t8.59,22.32a22.24,22.24,0,0,1-3.87,12.89,21.65,21.65,0,0,1-8.39,7.39.65.65,0,0,0,0,1.18,32.62,32.62,0,0,1,5.25,2.88,20.46,20.46,0,0,1,5.39,5.39,27.47,27.47,0,0,1,3.62,7.75,36.6,36.6,0,0,1,1.35,10.53q0,15.33-10.27,24.34t-31.5,9H7.2A.65.65,0,0,1,6.54,139.9ZM29.11,48.73v23a.66.66,0,0,0,.66.65H58.59q14.14,0,14.15-12.13,0-6.39-3.62-9.26T57.24,48.07H29.77A.67.67,0,0,0,29.11,48.73Zm29.65,72.79q8.09,0,12.63-4.55a15.53,15.53,0,0,0,4.55-11.45q0-7.41-4.46-10.78T59.1,91.37H29.77a.66.66,0,0,0-.66.65v28.84a.67.67,0,0,0,.66.66Z" transform="translate(-6.54 -5.84)"/><path class="cls-5" d="M144.5,142.74a47.87,47.87,0,0,1-18-3.2,37,37,0,0,1-21.73-22.74,52.6,52.6,0,0,1-2.86-17.69,51.66,51.66,0,0,1,3-17.85,38.45,38.45,0,0,1,8.5-13.81,38,38,0,0,1,13.4-8.85,47.88,47.88,0,0,1,17.77-3.11A46.8,46.8,0,0,1,162,58.6a37,37,0,0,1,21.64,22.49,52.2,52.2,0,0,1,3,18,51.46,51.46,0,0,1-3,17.94,39,39,0,0,1-8.42,13.73,37.16,37.16,0,0,1-13.31,8.85A46.91,46.91,0,0,1,144.5,142.74Zm0-18.36q20,0,20-25.27,0-25.1-20-25.09t-20,25.09Q124.45,124.39,144.5,124.38Z" transform="translate(-6.54 -5.84)"/><path class="cls-5" d="M194.52,139.9V58.33a.66.66,0,0,1,.66-.65h19.24a.65.65,0,0,1,.65.65v7.16a.66.66,0,0,0,1.19.38,24,24,0,0,1,10.52-8.45,23.49,23.49,0,0,1,6.32-1.6,63.93,63.93,0,0,1,6.57-.33h2.21a.65.65,0,0,1,.65.65v21a.65.65,0,0,1-.75.64,37.74,37.74,0,0,0-4.23-.37c-11.63-.35-21.13,9.29-21.13,20.93V139.9a.65.65,0,0,1-.65.65H195.18A.66.66,0,0,1,194.52,139.9Z" transform="translate(-6.54 -5.84)"/><path class="cls-5" d="M264.29,104.84a.67.67,0,0,0-.66.71q.66,8.94,5.43,14.28a16.67,16.67,0,0,0,13.06,5.56,18.35,18.35,0,0,0,9.52-2.44,11.12,11.12,0,0,0,5.17-6.35.64.64,0,0,1,.62-.47h21.18a.66.66,0,0,1,.63.86q-3.93,12.18-13.2,18.85-9.6,6.9-22.91,6.9-41.44,0-41.44-45.14a52.51,52.51,0,0,1,2.7-17.35,37.29,37.29,0,0,1,7.83-13.31,34,34,0,0,1,12.55-8.51,45.87,45.87,0,0,1,17-2.94q19.2,0,29.06,12.29,9.72,12.14,9.85,36.39a.66.66,0,0,1-.66.67ZM297.43,91a.67.67,0,0,0,.66-.7,22.65,22.65,0,0,0-1.57-7.3,16.76,16.76,0,0,0-3.79-5.73,15,15,0,0,0-5.39-3.37,18.2,18.2,0,0,0-6.23-1.09,15.54,15.54,0,0,0-11.37,4.8q-4.61,4.59-5.41,12.66A.66.66,0,0,0,265,91Z" transform="translate(-6.54 -5.84)"/><path class="cls-5" d="M380,140.09a33.09,33.09,0,0,1-1.07-5.53.65.65,0,0,0-1.1-.39,27.89,27.89,0,0,1-9.31,6,39.05,39.05,0,0,1-14.82,2.61q-14.32,0-21-6.31T326.08,120q0-8.93,2.87-14.23a21.24,21.24,0,0,1,7.91-8.34A38.1,38.1,0,0,1,348.91,93q7-1.44,15.24-2.61t11.12-3.12q2.87-1.93,2.86-6.32a7,7,0,0,0-3.79-6.31q-3.78-2.28-10.19-2.28-7.57,0-10.86,3.37a15.57,15.57,0,0,0-4,8.38.66.66,0,0,1-.64.55H329.46a.67.67,0,0,1-.66-.69,37.08,37.08,0,0,1,2.08-11.1,22.55,22.55,0,0,1,6.24-9.27,29.2,29.2,0,0,1,11.2-6,58.44,58.44,0,0,1,16.84-2.1,54.72,54.72,0,0,1,16.59,2.19A26.71,26.71,0,0,1,392.7,64a24.08,24.08,0,0,1,6,10.28,48,48,0,0,1,1.86,13.9V139.9a.66.66,0,0,1-.66.65H380.65A.65.65,0,0,1,380,140.09Zm-1.4-38.7a.65.65,0,0,0-1.05-.53,13.78,13.78,0,0,1-3.81,1.79,86.31,86.31,0,0,1-9.26,2.19q-9.44,1.86-13,4.72T348,117.81q0,9.27,10.61,9.27a21.25,21.25,0,0,0,7.84-1.43A19.12,19.12,0,0,0,376.87,116a15.85,15.85,0,0,0,1.6-7Z" transform="translate(-6.54 -5.84)"/><path class="cls-5" d="M410.14,139.9V28a.65.65,0,0,1,.65-.65h20.59A.65.65,0,0,1,432,28V139.9a.65.65,0,0,1-.65.65H410.79A.65.65,0,0,1,410.14,139.9Z" transform="translate(-6.54 -5.84)"/><path class="cls-5" d="M441.8,139.9V58.33a.66.66,0,0,1,.66-.65h20.59a.65.65,0,0,1,.65.65V139.9a.65.65,0,0,1-.65.65H442.46A.66.66,0,0,1,441.8,139.9Z" transform="translate(-6.54 -5.84)"/><path class="cls-5" d="M524.06,82.78a.65.65,0,0,1-.64-.56q-.93-5.62-4.3-8-3.54-2.44-11.12-2.44-6.22,0-9.6,1.6a5.46,5.46,0,0,0-3.37,5.3,6.16,6.16,0,0,0,3.37,5.65,45.63,45.63,0,0,0,10.11,3.79q7.07,2,13.47,3.62a103.39,103.39,0,0,1,11.29,3.45,23.66,23.66,0,0,1,10.11,7.33q3.54,4.64,3.53,12.72,0,13-9.18,20.21t-27,7.24q-19.2,0-29.4-8.08-9.92-7.86-10.5-20a.66.66,0,0,1,.66-.69h21.89A10.43,10.43,0,0,0,497.9,123q4.55,3.21,12.63,3.21a25.23,25.23,0,0,0,10.27-1.94,6.72,6.72,0,0,0,4.2-4.82,7.6,7.6,0,0,0-4.55-8.42,54.4,54.4,0,0,0-8.57-2.85q-10.45-2.52-16.85-4.55a43.41,43.41,0,0,1-10.78-4.88q-5.89-3.7-8.17-8.42a23.45,23.45,0,0,1-2.27-10.28,25.55,25.55,0,0,1,1.85-9.77,18.93,18.93,0,0,1,6.06-7.83,31.14,31.14,0,0,1,10.87-5.14,60.85,60.85,0,0,1,16.09-1.85q18,0,26.53,6.9,8.26,6.74,9.3,19.67a.67.67,0,0,1-.66.72Z" transform="translate(-6.54 -5.84)"/><path class="cls-5" d="M441.8,51V27.54c0-.1.3-.18.66-.18h20.59c.36,0,.65.08.65.18V51c0,.1-.29.19-.65.19H442.46C442.1,51.19,441.8,51.1,441.8,51Z" transform="translate(-6.54 -5.84)"/></g></svg>