<svg xmlns="http://www.w3.org/2000/svg" viewBox="0 0 540.38 115.39"><defs><style>.cls-1{fill:#fff;}</style></defs><g id="Layer_1" data-name="Layer 1"><path class="cls-1" d="M4.65,116V5.46a.65.65,0,0,1,.66-.66H59.73q16.51,0,25.1,8.17t8.59,22.32a22.21,22.21,0,0,1-3.87,12.88,21.61,21.61,0,0,1-8.39,7.4.65.65,0,0,0,0,1.18,32.62,32.62,0,0,1,5.25,2.88A20.32,20.32,0,0,1,91.82,65a27.34,27.34,0,0,1,3.62,7.75A36.5,36.5,0,0,1,96.79,83.3q0,15.33-10.27,24.34t-31.5,9H5.31A.65.65,0,0,1,4.65,116ZM27.22,24.83V47.77a.67.67,0,0,0,.66.66H56.7q14.14,0,14.15-12.13C70.85,32,69.64,29,67.23,27s-6.38-2.86-11.88-2.86H27.88A.66.66,0,0,0,27.22,24.83ZM56.87,97.61q8.09,0,12.63-4.54a15.52,15.52,0,0,0,4.55-11.46q0-7.41-4.46-10.78T57.21,67.46H27.88a.67.67,0,0,0-.66.66V97a.66.66,0,0,0,.66.65Z" transform="translate(-4.65 -3.45)"/><path class="cls-1" d="M142.61,118.84a47.87,47.87,0,0,1-18-3.2A37,37,0,0,1,102.85,92.9,52.64,52.64,0,0,1,100,75.21a51.76,51.76,0,0,1,3-17.86,37.38,37.38,0,0,1,21.9-22.65,47.67,47.67,0,0,1,17.77-3.12,46.6,46.6,0,0,1,17.52,3.12,37,37,0,0,1,21.64,22.49,52.2,52.2,0,0,1,2.95,18,51.46,51.46,0,0,1-2.95,17.94,39.09,39.09,0,0,1-8.42,13.73A37,37,0,0,1,160,115.72,46.71,46.71,0,0,1,142.61,118.84Zm0-18.36q20,0,20-25.27,0-25.09-20-25.1t-20.05,25.1Q122.56,100.47,142.61,100.48Z" transform="translate(-4.65 -3.45)"/><path class="cls-1" d="M192.64,116V34.43a.66.66,0,0,1,.65-.66h19.24a.67.67,0,0,1,.66.66v7.16a.65.65,0,0,0,1.18.37,24.7,24.7,0,0,1,4.46-4.82,24.24,24.24,0,0,1,6.06-3.62,23.58,23.58,0,0,1,6.32-1.6,63.89,63.89,0,0,1,6.57-.34H240a.66.66,0,0,1,.65.66v21a.65.65,0,0,1-.75.64,35.35,35.35,0,0,0-4.22-.37c-11.64-.35-21.14,9.29-21.14,20.93V116a.65.65,0,0,1-.65.66H193.29A.65.65,0,0,1,192.64,116Z" transform="translate(-4.65 -3.45)"/><path class="cls-1" d="M262.4,80.94a.67.67,0,0,0-.66.71q.66,8.92,5.43,14.28a16.68,16.68,0,0,0,13.06,5.56,18.45,18.45,0,0,0,9.52-2.44,11.1,11.1,0,0,0,5.17-6.36.65.65,0,0,1,.62-.47h21.19a.67.67,0,0,1,.63.87q-3.94,12.16-13.21,18.84-9.6,6.91-22.91,6.91-41.44,0-41.44-45.15a52.51,52.51,0,0,1,2.7-17.35A37.25,37.25,0,0,1,250.33,43a33.84,33.84,0,0,1,12.55-8.51,45.86,45.86,0,0,1,17-3q19.2,0,29.06,12.3Q318.67,56,318.8,80.27a.67.67,0,0,1-.66.67Zm33.14-13.82a.67.67,0,0,0,.66-.69,22.71,22.71,0,0,0-1.57-7.31,16.62,16.62,0,0,0-3.79-5.72A15,15,0,0,0,285.45,50a18.22,18.22,0,0,0-6.23-1.1,15.54,15.54,0,0,0-11.37,4.8q-4.61,4.6-5.41,12.67a.66.66,0,0,0,.66.72Z" transform="translate(-4.65 -3.45)"/><path class="cls-1" d="M378.12,116.18a33.16,33.16,0,0,1-1.07-5.52.65.65,0,0,0-1.1-.4,27.75,27.75,0,0,1-9.31,6,39.05,39.05,0,0,1-14.82,2.61q-14.32,0-21-6.32T324.19,96.1q0-8.92,2.87-14.24A21.35,21.35,0,0,1,335,73.53a38.11,38.11,0,0,1,12-4.47q7-1.43,15.24-2.61t11.12-3.12c1.91-1.28,2.86-3.39,2.86-6.31a7,7,0,0,0-3.79-6.32q-3.78-2.27-10.19-2.27-7.58,0-10.86,3.37a15.5,15.5,0,0,0-4,8.38.65.65,0,0,1-.64.54H327.57a.66.66,0,0,1-.66-.68A37.4,37.4,0,0,1,329,48.93a22.52,22.52,0,0,1,6.24-9.26,29.06,29.06,0,0,1,11.2-6,58.12,58.12,0,0,1,16.84-2.11,54.83,54.83,0,0,1,16.6,2.19,26.74,26.74,0,0,1,10.94,6.32,24,24,0,0,1,6,10.27,48,48,0,0,1,1.86,13.9V116a.66.66,0,0,1-.66.66H378.76A.68.68,0,0,1,378.12,116.18Zm-1.4-38.69a.65.65,0,0,0-1.05-.53,13.78,13.78,0,0,1-3.81,1.79,91.49,91.49,0,0,1-9.26,2.19c-6.29,1.23-10.61,2.81-13,4.71s-3.54,4.67-3.54,8.26q0,9.27,10.61,9.26a21.05,21.05,0,0,0,7.84-1.43A19.06,19.06,0,0,0,375,92.14a15.71,15.71,0,0,0,1.6-7Z" transform="translate(-4.65 -3.45)"/><path class="cls-1" d="M408.25,116V4.11a.65.65,0,0,1,.65-.66h20.59a.66.66,0,0,1,.66.66V116a.66.66,0,0,1-.66.66H408.9A.65.65,0,0,1,408.25,116Z" transform="translate(-4.65 -3.45)"/><path class="cls-1" d="M439.92,116V34.43a.66.66,0,0,1,.65-.66h20.59a.66.66,0,0,1,.65.66V116a.65.65,0,0,1-.65.66H440.57A.65.65,0,0,1,439.92,116Z" transform="translate(-4.65 -3.45)"/><path class="cls-1" d="M522.17,58.87a.65.65,0,0,1-.64-.56q-.93-5.61-4.3-8-3.54-2.43-11.12-2.44c-4.15,0-7.35.54-9.6,1.6a5.47,5.47,0,0,0-3.37,5.31,6.15,6.15,0,0,0,3.37,5.64,45.33,45.33,0,0,0,10.11,3.79q7.08,2,13.47,3.62a101.12,101.12,0,0,1,11.29,3.46,23.65,23.65,0,0,1,10.11,7.32Q545,83.3,545,91.38q0,13-9.19,20.21t-27,7.25q-19.2,0-29.4-8.09a26.26,26.26,0,0,1-10.5-20,.67.67,0,0,1,.66-.69h21.89a10.44,10.44,0,0,0,4.55,9.1q4.55,3.2,12.63,3.2a25.14,25.14,0,0,0,10.28-1.94,6.71,6.71,0,0,0,4.19-4.81,7.6,7.6,0,0,0-4.55-8.42A53.39,53.39,0,0,0,510,84.31q-10.46-2.53-16.85-4.55a43.77,43.77,0,0,1-10.78-4.89q-5.89-3.7-8.17-8.42a23.41,23.41,0,0,1-2.27-10.27,25.55,25.55,0,0,1,1.85-9.77,18.92,18.92,0,0,1,6.07-7.84,30.82,30.82,0,0,1,10.86-5.13,60.45,60.45,0,0,1,16.09-1.86q18,0,26.53,6.91,8.28,6.72,9.3,19.67a.67.67,0,0,1-.66.71Z" transform="translate(-4.65 -3.45)"/><path class="cls-1" d="M439.92,27.09V3.64c0-.1.29-.19.65-.19h20.59c.36,0,.65.09.65.19V27.09c0,.11-.29.19-.65.19H440.57C440.21,27.28,439.92,27.2,439.92,27.09Z" transform="translate(-4.65 -3.45)"/></g></svg>