<?xml version="1.0" encoding="utf-8"?>
<!-- Generator: Adobe Illustrator 25.2.0, SVG Export Plug-In . SVG Version: 6.00 Build 0)  -->
<svg version="1.1" id="Layer_1" xmlns="http://www.w3.org/2000/svg" xmlns:xlink="http://www.w3.org/1999/xlink" x="0px" y="0px"
	 viewBox="0 0 834.5 244.77" style="enable-background:new 0 0 834.5 244.77;" xml:space="preserve">
<style type="text/css">
	.st0{opacity:0.8;}
	.st1{fill:#6BCCDD;}
	.st2{fill:#FFFFFF;}
</style>
<g class="st0">
	<g>
		<g>
			<path class="st1" d="M628.79,166.07c0,0.01,0,0.03-0.01,0.04c0.02,0,0.04-0.01,0.06-0.01
				C628.84,166.1,628.79,166.07,628.79,166.07z"/>
			<path class="st1" d="M614.84,168.34c0.01,0,0.02-0.01,0.03-0.01c0.01-0.01,0.01-0.01,0.02-0.02L614.84,168.34z"/>
			<path class="st1" d="M616.42,167.69C616.42,167.69,616.42,167.7,616.42,167.69c0.03,0,0.04-0.01,0.06-0.01L616.42,167.69z"/>
			<path class="st1" d="M624.08,167.47c0.02,0.01,0.04,0.02,0.06,0.02c0,0,0,0,0,0C624.14,167.5,624.08,167.47,624.08,167.47z"/>
			<path class="st1" d="M596.83,172.92c0.01-0.01,0.02-0.01,0.03-0.02c0-0.01-0.01-0.01-0.01-0.02L596.83,172.92z"/>
			<path class="st1" d="M614.2,168.03c-0.04,0.01-0.06,0.02-0.1,0.03c0.02,0,0.04,0,0.05,0L614.2,168.03z"/>
			<path class="st1" d="M748.06,224.23c0.03,0,0.04-0.01,0.07-0.02c-0.01,0-0.02,0-0.03,0L748.06,224.23z"/>
			<path class="st1" d="M800.78,218.62c-0.01,0-0.02,0-0.03,0.01c0,0.01,0,0.02-0.01,0.03
				C800.74,218.66,800.78,218.62,800.78,218.62z"/>
			<path class="st1" d="M801.43,218.56c-0.02-0.01-0.03-0.02-0.05-0.03c0,0,0,0,0,0.01L801.43,218.56z"/>
			<path class="st1" d="M671.64,229.61c-0.03,0-0.07,0.01-0.1,0.01c-0.01,0.01-0.02,0.02-0.02,0.02L671.64,229.61z"/>
			<path class="st1" d="M718.82,227.31c-0.02,0-0.04-0.01-0.05-0.01c0,0.02-0.01,0.03-0.01,0.05L718.82,227.31z"/>
			<path class="st1" d="M744.13,222.23c-0.01-0.01-0.01-0.02-0.02-0.03c-0.01,0-0.03,0.01-0.04,0.01L744.13,222.23z"/>
			<path class="st1" d="M751.72,150.06c0.01,0,0.02,0,0.03,0c0-0.01,0-0.02,0-0.03L751.72,150.06z"/>
			<path class="st1" d="M768.17,148.26c0.02,0,0.04-0.01,0.06-0.01c0-0.01,0-0.02-0.01-0.03
				C768.22,148.22,768.17,148.26,768.17,148.26z"/>
			<path class="st1" d="M768.37,148.95c0,0,0-0.01,0-0.01c-0.02,0-0.05,0-0.07,0L768.37,148.95z"/>
			<path class="st1" d="M661.3,161.49c0.02,0.01,0.02,0.02,0.03,0.03c0,0,0,0,0.01,0L661.3,161.49z"/>
			<path class="st1" d="M770.67,147.16c0.01,0,0.02,0,0.03,0c0.01-0.01,0.02-0.02,0.03-0.04L770.67,147.16z"/>
			<path class="st1" d="M710.99,156.23c-0.02-0.01-0.04-0.02-0.04-0.02l0.04,0.06c0,0,0,0,0.01,0
				C710.99,156.25,710.99,156.24,710.99,156.23z"/>
			<path class="st1" d="M824.48,164c-6.71,3.17-1.15,5.77-0.99,8.61c0.01,0.18-0.03,0.36-0.05,0.54l0.04-0.01
				c0.02,0.14,0.04,0.28,0.06,0.41l-0.04,0c0.23,1.8,0.43,3.6,0.69,5.4c0.19,1.34,0.71,2.67-1.72,3.81
				c-0.28,0.13-0.57,0.5-0.48,0.66c2.54,4.23-4.85,9.13-0.29,13.36c2.25,2.09,0.93,4.2-4.64,4.39c0,0-0.1,0.04-0.1,0.04l0.16-0.04
				c0.67,1.57,1.4,3.12,2,4.7c0.65,1.74-0.88,2.75-3.78,2.93c-5.25,0.32-3.77,2.07-2.95,3.62c0.52,0.98-0.2,2.22,1.28,3.02
				c0.37,0.2,0.19,0.81-0.96,0.89c-1.12,0.08-2.52,0.66-2.74-0.47c-0.91,1.02-1.43,2.07-3.98,1.05c-1.14-0.45-3.8,0.18-4.62,1.63
				c-0.18-0.1-0.37-0.21-0.55-0.31c-0.03,0.13-0.05,0.26-0.08,0.4c-0.3,0.04-0.62,0.14-0.87,0.1c-1.74-0.22-2.84-2.23-5.57,0.37
				c-0.88,0.84-7.04,1.69-9.75-0.25c-1.49-1.06-2.84-0.67-4.45,0.23c-0.33,0.18-1.85,2.21-1.64-0.05c0.01-0.07-0.16-0.13-0.24-0.19
				c-0.29,0.15-0.87,0.35-0.84,0.45c0.49,2.01-0.62,2.28-3.13,1.25c-0.16-0.07-0.69,0.17-1.08,0.28c0.15,0.3,0.8,0.66-0.06,0.88
				c-2.64,0.69-3.68-0.84-5.65-1.12c0,0.01,0,0.01-0.01,0.02c-2.28,0.6-2.21-2.33-5.09-0.82l0.04,0.01
				c1.16,0.16,2.39,0.28,2.09,1.29c-0.31,1.08-1.65,0.71-2.64,0.86c-1.71,0.27-3.8-0.27-4.98,1.3c-0.16,0.21-2.45,0.69-3.17-0.26
				c-0.05-0.07-0.45-0.08-0.67-0.04c-0.54,0.09-1.51,0.24-1.53,0.34c-0.27,1.84-2.03,1.04-3.38,0.96c1.92-0.28,0.82-1.93,2.88-2.15
				c-0.88-0.18-1.5-0.77-2.72-0.44c0.02,0.13,0.04,0.27,0.05,0.4l-0.04-0.01c-1.55,1.36-2.75-0.31-4.19,0.17
				c-0.06-0.11-0.12-0.21-0.19-0.32c-3.32,0.88-6.95,0.54-10.19,1.74c0.69,0.05,1.38,0.09,2.06,0.14c-0.54,0.79-1.92,0.64-2.77,1.03
				c-1.83,0.84-4.16,0-6.17,1.66c-1.39,1.14-5.12,0.65-7.76,0.48c-0.07,0-0.23,0.05-0.25,0.09c-0.05,0.09-0.06,0.19-0.08,0.29
				c-2.44-0.64-6.43,1.06-7.81-1.35c-0.29-0.5-1.53,0.42-2.37,0.57c-0.89,0.16-2.19,0.49-2.62,0.27c-0.81-0.41,0.64-0.55,0.93-0.87
				c0.47-0.52-0.26-0.44-0.7-0.46c-1.23-0.05-2.48-0.64-3.68,0.07c-0.65,0.39,0.29,0.49,0.8,0.62c1.49,0.4-0.54,0.48-0.4,0.77
				c-1.59,0.34-2.98,1.22-4.52-0.12c-0.63-0.55-3.85,0.07-5.9,0.15l0.06-0.02c-0.9-1.43-3.82-0.62-4.8-0.47
				c-5.43,0.85-11.3,0.62-16.19,3.12c0,0-0.02,0.02-0.04,0.04c-1.2,0.17-2.4,0.35-3.6,0.52l0.05,0.02
				c-4.73-0.56-9.45-0.5-14.16,1.21c0.37,0.2,0.73,0.4,1.1,0.59l0.06,0.01c-1.65,0.53-3.17,1.37-5.16,1.09
				c-0.7-0.1-1.5-0.01-2.26-0.01c0.67-0.26,1.33-0.52,2-0.78c0.06-0.14,0.12-0.28,0.18-0.42c-0.27,0.04-0.54,0.08-0.81,0.13
				l-0.04,0.02c-3.42,0.6-6.79,1.6-10.33,1.37c0.03-0.02,0.07-0.03,0.1-0.05c-0.04,0.01-0.09,0.03-0.13,0.04
				c-2.75,2.58-7.1,0.7-10.28,2.11l-0.03-0.02c-2.41-1.04-4.76,1.3-7.22,0.67c-0.27-0.07-0.75,0.35-1.5,0.14
				c-1.21-0.34-3.5-2.36-3.71,0.74c-0.01,0.1-1.11,0.42-1.2,0.36c-2.69-1.84-4.85,0.04-7.15,0.92c0,0,0-0.01-0.01-0.03
				c-3.97,0.65-7.03,0.46-7.61-2.32c-0.4-1.89-3.15-1.95-5.56-1.62c-1.87,0.26-2.91,0.2-3.62-0.71l-0.04,0.01
				c-0.02-0.14-0.03-0.27-0.05-0.41c0,0,0.04,0,0.04,0c-2.4-2.41-3.03-5.27-4.21-7.99c-0.07-0.17,0.21-0.58,0.3-0.59
				c6.39-0.33,1.66-2.12,1.84-3.2c0.74-4.4-1.52-8.33-2.81-12.41c-0.43-1.36-2.42-2.92,2.55-3.07c1.07-0.03,1.01-0.68,0.91-1.18
				c-0.79-3.94-1.75-7.86-2.24-11.84c-0.2-1.65-2.14-2.37-3.32-3.5c-3.21-3.09-3.26-7.03-5.53-10.39c-0.21-0.31,0.04-1.1,0.32-1.17
				c3.76-0.94,7.69-1.62,11.33-2.73c2.15-0.66,4.99-0.54,6.45-2.13l-0.03-0.03c0.29,0.03,0.58,0.06,0.87,0.09
				c-0.12-0.03-0.18-0.08-0.18-0.16c0.22-0.14,0.59-0.3,0.58-0.42c-0.25-4.76,6.18-2.98,9.73-4.01c0.47-0.14,0.95-0.26,1.42-0.39
				l-0.06-0.03c1.85,0,3.71,0,5.56,0.01c-1.85,0.53-0.97,0.84,0.06,1.14c0.24-0.29,0.47-0.58,0.7-0.87
				c0.52-0.21,1.04-0.42,1.56-0.63c0.37,0.54,1.17,1.33,1.97,0.67c1.89-1.57,3.8-0.86,5.74-0.87c2.5,1.07,2.98-1.11,4.64-1.39
				c-0.03,0.19-0.06,0.38-0.09,0.57c0.04,0.08,0.07,0.16,0.1,0.24c-0.03-0.09-0.06-0.18-0.09-0.27c0.72,0.32,1.43,0.65,2.15,0.97
				l-0.07-0.03c0.08,0.13,0.17,0.25,0.25,0.38c0,0-0.01,0-0.01,0.01c0.37,0.22,0.73,0.44,1.1,0.65c0.02-0.04,0.04-0.08,0.06-0.13
				c1.41-2.41,3.79,0.2,5.23-0.76c1.96-1.3-4.23-0.42-1.34-2.12c0.15-0.09,0.58-0.01,0.88,0c0,0,0,0.02-0.01,0.03
				c2.22-0.27,4.92,0.13,5.91-1.87c2.01,0.3,4.11,0.32,5.81-0.73c3.04-1.88,4.59,0.95,7.22,0.11c-0.22,0.24-0.43,0.49-0.65,0.73
				c1.19-0.34,2.37-0.69,3.56-1.03c-0.22-1.15,0.95-1.39,2.53-1.36c0.43,0.25-0.38,0.98,0.84,0.93c-0.04-0.46-0.04-0.92,0.86-1.22
				c1.12,0.65,2.24,1.31,3.38,1.95c0.57,0.32,1.13,0.9,2.13,0.19c0.76-0.53,0.41-0.81-0.56-1c-1.72-0.34,1.68-1.03,0.13-1.44
				l0.05,0.01c2.46-0.23,2.68,1.98,5.44,1.42c0,0,0.1-0.04,0.1-0.04l-0.17,0.05c-0.4-0.33-0.8-0.65-1.2-0.98
				c-0.49-0.19-0.98-0.39-1.47-0.58c0,0,0.15,0,0.15,0l-0.09-0.01c-0.37-0.42-0.74-0.84-1.11-1.26c1.89-0.24,3.77-0.48,5.66-0.72
				c0.12,2.69,3.81,0.45,5.35,1c2.71,0.97,1.64-0.32,1.77-0.92c0.53-0.42,1.48-0.63,1.74-0.28c1.87,2.55,4.47,0.78,6.94-0.1
				c0,0-0.06-0.02-0.06-0.02c1.65,0.42,1.31-0.5,1.71-0.91c1.99-0.23,3.71-1.68,5.91-0.95c0,0-0.01-0.01-0.01-0.01
				c3-1.05,6.14-1.34,9.33-1.44c0.28,0.91-0.58,2.78,2.81,1.08l0.01,0.02c0-0.01,0-0.01,0-0.02c0.02-0.01,0.03-0.01,0.05-0.02
				c0,0-0.03-0.01-0.05-0.02c-0.36-1.66,1.96-1.21,3.31-1.52l0.07-0.03c-0.48,0.55-0.96,1.09-1.44,1.64
				c0.74-0.09,1.48-0.17,2.22-0.26c0.22-0.03,0.45-0.06,0.67-0.09c0.43,0.17,0.86,0.35,1.29,0.52c0.22,0.13,0.44,0.26,0.66,0.38
				c-0.02-0.15-0.03-0.31-0.05-0.46c1.5-0.59-0.29-0.6-0.26-0.93c0.08-0.07,0.16-0.14,0.24-0.2c0.16-0.12,0.31-0.25,0.47-0.37
				l-0.06,0.05c0.22-0.03,0.45-0.06,0.67-0.09l-0.07-0.01c3.6,0.63,6.86-1.3,10.4-1.35c1.02-0.01,2.38-0.89,2.66,0.31
				c1.67-0.43,2.78-1.16,3.31-2.19l-0.01-0.02c0.37,0.57-0.34,1.53,1.31,1.64c0.33,0.02,0.75-0.17,1.13-0.27
				c-1.22-2.18,2-1.04,3-1.41c3.1-1.15,3.58-0.14,3.03,1.45c0,0-0.15,0.05-0.15,0.05l0.1-0.02c1.52-0.56,3.03-1.13,4.55-1.69
				l-0.05,0.04c0.52-0.16,1.04-0.32,1.56-0.48c0,0,0,0.01,0,0.01c0.43-0.59,2.18,0.13,2.21-0.86c0.61,0.05,1.21,0.1,1.82,0.14
				c0.22,0.09,0.44,0.18,0.65,0.27c0.64,0.15,1.28,0.29,1.91,0.44c0,0,0.01-0.01,0.01-0.01c2.97,0.26,5.6-0.48,8.08-1.63
				c0.3-0.14,0.05-0.76,0.79-0.45c0.3,0.13,0.23,0.67,0.06,0.99c-0.14,0.27-1.27-0.16-1.25,0.48c0,0.08,0.35,0.21,0.39,0.2
				c0.73-0.34,2.28,0.74,2.41-0.62c0.37-0.15,0.74-0.3,1.11-0.46l-0.04-0.04c0.55,0.33,1.41,0.3,1.69-0.11
				c0.34-0.51-0.5-0.38-1.03-0.35c-0.05-0.23-0.09-0.46-0.14-0.69c0.63-0.11,1.26-0.23,1.89-0.34c0,0-0.02,0.03-0.02,0.03
				c0.2-0.26,0.4-0.52,0.6-0.79c0.15,0.02,0.3,0.02,0.46-0.01l0.01-0.02c1.31,0.21,2.62,0.42,3.93,0.63l-0.06-0.02
				c1.68,0.37,3.01-0.78,3.12-1.12c1.15-3.43,4.89-0.89,7.27-1.63c2.04-0.64,4.5-0.23,4.81,1.94c0.37,2.61,4.61,0.74,7.07,0.91
				c1.68,0.11,3.6-0.32,5.41-0.57c1.69-0.23,2.61,0.45,2.22,1.1c-3.27,5.61,4.01,3.65,8.14,3.77c2.12,0.06,4.4-0.41,6.6-0.51
				c2.54-0.12,2.21,1.5,2.22,2.16c0.02,3.24,1.8,6.11,2.76,9.14C824.75,163.28,824.79,163.85,824.48,164z M595.54,175.21
				c0.07-0.13,0.15-0.25,0.22-0.38c-0.18,0.09-0.36,0.17-0.54,0.26C595.32,175.14,595.43,175.18,595.54,175.21z M596.9,174.87
				c-0.21-0.26-0.43-0.51-0.64-0.77c-0.14,0.22-0.27,0.44-0.41,0.67C596.2,174.81,596.55,174.84,596.9,174.87z M597.08,173.08
				c-0.01,0-0.01-0.01-0.02-0.01c-0.01,0.05-0.02,0.1-0.02,0.15C597.05,173.18,597.06,173.13,597.08,173.08z M614.11,170.15
				c0.37-0.18,0.95-0.34,1.07-0.55c0.32-0.59-0.46-0.34-0.9-0.36C615.02,169.5,613.81,169.87,614.11,170.15z M630.98,168.03
				c-0.43,0.3-0.87,0.6-1.3,0.9c0.16,0.02,0.33,0.06,0.48,0.04C631.16,168.82,630.95,168.4,630.98,168.03z M633.76,168.37
				c-0.44,0.09-0.89,0.18-1.33,0.27c0.44-0.04,0.88-0.08,1.32-0.12C633.76,168.52,633.76,168.42,633.76,168.37z M653.16,230.98
				c0.17,0.1,0.33,0.19,0.5,0.29c-0.1-0.13-0.19-0.26-0.29-0.4C653.3,230.91,653.23,230.95,653.16,230.98z M658.95,163.86
				c-0.06-0.23-0.11-0.47-0.17-0.7C658.52,163.45,658.08,163.76,658.95,163.86z M653.46,165.59c1.07,0.34,2.12,0.13,3.16-0.29
				c-0.48-0.44-0.96-0.88-1.44-1.32c-2.21,1.87-2.68-1.13-4.58-0.23c-0.21,0.1-0.46-0.65-0.99-0.05c-0.15,0.17,0.08,0.42,0.14,0.64
				c2.65-0.84,2.24,1.1,3.78,1.27L653.46,165.59z M659.82,162.51c-0.32,0.13-0.64,0.26-0.95,0.38c0.02,0.06,0.01,0.11-0.02,0.17
				c0.35-0.08,0.7-0.15,1.04-0.25C659.92,162.81,659.84,162.62,659.82,162.51z M673.79,160.82c-0.13-0.06-0.25-0.19-0.38-0.18
				c-0.8,0.03-0.96,0.35-0.99,0.72C672.88,161.18,673.33,161,673.79,160.82z M700.86,156.87c-0.87,0.35-1.56,0.35-1.97-0.19
				c-0.69,0.54-0.53,1.04-0.18,1.53C699.35,157.72,700.85,157.69,700.86,156.87z M717.89,156.83l-0.12,0.04
				c0.02,0.01,0.03,0.02,0.05,0.03C717.82,156.89,717.89,156.83,717.89,156.83z M733,224.07c0.2-0.15,0.39-0.3,0.59-0.45
				c-0.38-0.11-0.77-0.21-1.15-0.32c-0.02,0.01-0.04,0.03-0.05,0.04c0.04-0.01,0.08-0.01,0.12-0.02
				C732.66,223.57,732.83,223.82,733,224.07z M744.93,221.59c-0.06-0.07-0.12-0.14-0.19-0.2c-0.23,0.14-0.45,0.28-0.68,0.41
				C744.35,221.73,744.64,221.66,744.93,221.59z M755.45,151.41c0,0,0.07,0.04,0.07,0.04l-0.01-0.07c0.04-0.03,0.07-0.05,0.11-0.08
				C755.56,151.34,755.5,151.38,755.45,151.41z M769.75,219.43c-1.37-0.13-2.06,0.28-2.27,1.08
				C768.24,220.15,768.99,219.79,769.75,219.43z M769.85,219.44c-0.01,0-0.02,0-0.03,0c0.01,0.03,0.03,0.06,0.03,0.06L769.85,219.44
				z M773,220.82c-0.37-0.02-0.73-0.04-1.1-0.06c0,0.1,0.01,0.19,0.01,0.29C772.28,220.97,772.64,220.89,773,220.82z M800.41,217.83
				c0.04,0.03,0.08,0.07,0.13,0.1c-0.03-0.03-0.06-0.06-0.09-0.1C800.44,217.83,800.43,217.83,800.41,217.83z M809.18,215.97
				c0.23-0.04,0.47-0.09,0.71-0.13c-0.07,0.01-0.14,0.02-0.2,0.03C809.51,215.9,809.35,215.94,809.18,215.97z"/>
			<path class="st1" d="M766.61,149.9c0.01,0,0.01-0.01,0.02-0.01c0-0.01,0-0.02,0-0.03L766.61,149.9z"/>
			<path class="st1" d="M682.59,158.93c0.01-0.01,0.02-0.01,0.03-0.02c0-0.01,0-0.02,0-0.03L682.59,158.93z"/>
			<path class="st1" d="M662.98,161.21c0.02,0.01,0.03,0.02,0.05,0.03c0,0,0.01,0,0.01,0L662.98,161.21z"/>
			<path class="st1" d="M753.52,150.18c0.02,0.01,0.04,0.02,0.06,0.02c0,0,0.01,0,0.01,0L753.52,150.18z"/>
			<path class="st1" d="M692.91,157.6c0.01,0,0.02,0,0.03,0c0.01-0.01,0.02-0.03,0.03-0.04L692.91,157.6z"/>
			<path class="st1" d="M708.17,155.17c0,0.01,0,0.02,0.01,0.03c0.02,0,0.04,0,0.06,0L708.17,155.17z"/>
		</g>
	</g>
</g>
<g>
	<path class="st2" d="M679.9,199.31c0,0.52,0.16,0.9,0.44,1.16c0.28,0.28,0.7,0.41,1.24,0.41l0,0c0.52,0,0.93,0.41,0.93,0.93v3.44
		c0,0.52-0.41,0.93-0.93,0.93h-1.89c-1.68,0-2.97-0.49-3.9-1.45c-0.93-0.96-1.4-2.33-1.4-4.08v-22.72c0-0.52,0.41-0.93,0.93-0.93
		h3.65c0.52,0,0.93,0.41,0.93,0.93V199.31L679.9,199.31z"/>
	<path class="st2" d="M636.67,185.35h3.8c0.47,0,0.85,0.39,0.85,0.85v23.81c0,2.56-2.07,4.65-4.65,4.65l0,0
		c-0.47,0-0.85-0.39-0.85-0.85V186.2C635.82,185.74,636.21,185.35,636.67,185.35z M643.01,205.54c-0.88-0.62-1.55-1.5-1.96-2.64
		l0.28-4.76c0,0.67,0.13,1.27,0.36,1.76s0.59,0.85,1.06,1.11s1.01,0.39,1.68,0.39c1.03,0,1.84-0.34,2.4-1.03
		c0.57-0.67,0.85-1.65,0.85-2.9v-3.31c0-1.27-0.28-2.25-0.85-2.95c-0.57-0.7-1.37-1.06-2.4-1.06c-0.65,0-1.22,0.13-1.68,0.39
		s-0.8,0.65-1.06,1.14l-0.44,0.9l-0.34-3.72c0.57-1.22,1.29-2.15,2.22-2.82c0.9-0.67,1.94-0.98,3.05-0.98
		c1.47,0,2.74,0.36,3.77,1.06c1.06,0.7,1.86,1.76,2.4,3.1c0.54,1.37,0.83,3,0.83,4.91v3.34c0,1.89-0.28,3.52-0.83,4.86
		c-0.54,1.34-1.34,2.38-2.4,3.08c-1.06,0.7-2.3,1.06-3.77,1.06C644.95,206.47,643.89,206.16,643.01,205.54z"/>
	<path class="st2" d="M658.83,205.41c-1.34-0.7-2.38-1.73-3.08-3.1c-0.7-1.37-1.06-3-1.06-4.91v-3.39c0-1.89,0.36-3.49,1.06-4.83
		c0.7-1.34,1.73-2.38,3.08-3.08s2.97-1.06,4.86-1.06s3.52,0.36,4.86,1.06s2.38,1.73,3.08,3.08c0.7,1.34,1.06,2.95,1.06,4.83v3.44
		c0,1.89-0.36,3.52-1.06,4.86c-0.7,1.34-1.73,2.38-3.08,3.08s-2.97,1.06-4.86,1.06C661.78,206.47,660.18,206.13,658.83,205.41z
		 M666.25,200.21c0.62-0.65,0.93-1.55,0.93-2.74v-3.46c0-1.16-0.31-2.07-0.93-2.71c-0.62-0.65-1.47-0.96-2.59-0.96
		c-1.09,0-1.94,0.31-2.56,0.96c-0.62,0.65-0.9,1.55-0.9,2.71v3.44c0,1.19,0.31,2.09,0.9,2.74c0.59,0.65,1.45,0.98,2.56,0.98
		C664.78,201.2,665.63,200.86,666.25,200.21z"/>
	<path class="st2" d="M681.53,185.35h3.49c0.31,0,0.62,0.21,0.72,0.49l6.64,17.19c0.1,0.26,0.05,0.54-0.1,0.78l-2.35,3
		c-0.36,0.47-1.14,0.36-1.34-0.21l-7.81-20.19C680.62,185.89,680.99,185.35,681.53,185.35z M697.89,185.35
		c0.85,0,1.45,0.85,1.16,1.63l-8.69,24.07c-0.34,0.96-0.78,1.71-1.29,2.25c-0.52,0.54-1.16,0.96-1.91,1.19
		c-0.75,0.23-1.68,0.36-2.79,0.36l0,0c-0.67,0-1.22-0.54-1.22-1.22v-2.9c0-0.67,0.54-1.22,1.22-1.22l0,0c0.59,0,1.09-0.13,1.47-0.39
		c0.39-0.26,0.7-0.7,0.9-1.27l7.42-21.69c0.18-0.49,0.65-0.83,1.16-0.83H697.89z"/>
	<path class="st2" d="M696.89,185.35h10.21c0.59,0,1.09,0.39,1.09,0.88v2.92c0,0.49-0.49,0.88-1.09,0.88h-10.21
		c-0.59,0-1.09-0.39-1.09-0.88v-2.9C695.8,185.76,696.29,185.35,696.89,185.35z M701.38,204.89c-0.85-0.93-1.27-2.3-1.27-4.11
		v-20.11c0-0.75,0.62-1.37,1.37-1.37h2.77c0.75,0,1.37,0.62,1.37,1.37v18.74c0,0.52,0.1,0.9,0.31,1.16
		c0.21,0.28,0.49,0.41,0.88,0.41l0,0c0.75,0,1.37,0.62,1.37,1.37v2.56c0,0.75-0.62,1.37-1.37,1.37h-1.4
		C703.58,206.29,702.24,205.82,701.38,204.89z"/>
	<path class="st2" d="M714.03,205.41c-1.34-0.7-2.38-1.73-3.08-3.1c-0.7-1.37-1.06-3-1.06-4.91v-3.39c0-1.89,0.36-3.49,1.06-4.83
		c0.7-1.34,1.73-2.38,3.08-3.08s2.97-1.06,4.86-1.06s3.52,0.36,4.86,1.06s2.38,1.73,3.08,3.08s1.06,2.95,1.06,4.83v3.44
		c0,1.89-0.36,3.52-1.06,4.86s-1.73,2.38-3.08,3.08s-2.97,1.06-4.86,1.06C717,206.47,715.37,206.13,714.03,205.41z M721.47,200.21
		c0.62-0.65,0.93-1.55,0.93-2.74v-3.46c0-1.16-0.31-2.07-0.93-2.71c-0.62-0.65-1.47-0.96-2.59-0.96c-1.09,0-1.94,0.31-2.56,0.96
		c-0.62,0.65-0.9,1.55-0.9,2.71v3.44c0,1.19,0.31,2.09,0.9,2.74c0.59,0.65,1.45,0.98,2.56,0.98
		C720,201.2,720.85,200.86,721.47,200.21z"/>
	<path class="st2" d="M730.83,185.35h3.1c0.67,0,1.19,0.54,1.19,1.19v23.81c0,2.38-1.91,4.29-4.29,4.29l0,0
		c-0.67,0-1.19-0.54-1.19-1.19v-26.89C729.62,185.89,730.16,185.35,730.83,185.35z M736.8,205.54c-0.88-0.62-1.55-1.5-1.96-2.64
		l0.28-4.76c0,0.67,0.13,1.27,0.36,1.76s0.59,0.85,1.06,1.11c0.47,0.26,1.01,0.39,1.68,0.39c1.03,0,1.84-0.34,2.4-1.03
		c0.57-0.67,0.85-1.65,0.85-2.9v-3.31c0-1.27-0.28-2.25-0.85-2.95c-0.57-0.7-1.37-1.06-2.4-1.06c-0.65,0-1.22,0.13-1.68,0.39
		c-0.47,0.26-0.8,0.65-1.06,1.14c-0.23,0.49-0.36,1.09-0.36,1.81l-0.41-4.63c0.57-1.22,1.29-2.15,2.22-2.82
		c0.9-0.67,1.94-0.98,3.05-0.98c1.47,0,2.74,0.36,3.77,1.06c1.06,0.7,1.86,1.76,2.4,3.1c0.54,1.37,0.83,3,0.83,4.91v3.34
		c0,1.89-0.28,3.52-0.83,4.86c-0.54,1.34-1.34,2.38-2.4,3.08c-1.06,0.7-2.3,1.06-3.77,1.06
		C738.74,206.47,737.68,206.16,736.8,205.54z"/>
	<path class="st2" d="M753.3,205.39c-1.42-0.72-2.51-1.78-3.26-3.18c-0.75-1.4-1.11-3.08-1.11-5.04v-2.35
		c0-2.07,0.36-3.83,1.09-5.27c0.72-1.45,1.76-2.56,3.13-3.34c1.37-0.75,3.02-1.14,4.96-1.14c1.81,0,3.39,0.47,4.68,1.37
		c1.29,0.9,2.28,2.22,2.95,3.96s1.01,3.83,1.01,6.28v0.93c0,0.23-0.18,0.44-0.44,0.44h-13.39c-0.23,0-0.44-0.18-0.44-0.44v-2.84
		c0-0.23,0.18-0.44,0.44-0.44h8.32c0.26,0,0.47-0.23,0.41-0.49l0,0c-0.16-1.22-0.52-2.15-1.14-2.79c-0.62-0.65-1.42-0.98-2.43-0.98
		c-1.32,0-2.35,0.39-3.08,1.19c-0.72,0.8-1.09,1.91-1.09,3.36v2.64c0,1.42,0.39,2.51,1.19,3.28c0.8,0.78,1.91,1.16,3.34,1.16
		c0.72,0,1.47-0.13,2.2-0.39c0.62-0.23,1.19-0.52,1.71-0.9c0.16-0.13,0.39-0.1,0.54,0.03l2.97,2.64c0.18,0.18,0.21,0.47,0,0.65
		c-0.98,0.83-2.09,1.5-3.28,1.96c-1.34,0.54-2.71,0.8-4.08,0.8C756.43,206.47,754.72,206.11,753.3,205.39z"/>
</g>
<g>
	<path d="M56,52.7c9.92,0,18.21,2.6,24.87,7.8v-0.89c0-5.49,2.37-8.24,7.13-8.24c4.9,0,7.35,2.38,7.35,7.13
		c0,0.89-0.13,3.12-0.37,6.69c-0.49,2.97-0.74,5.94-0.74,8.91c0,1.78,0.18,4.38,0.56,7.8c0.37,3.42,0.56,6.02,0.56,7.8
		c0,5.65-2.42,8.47-7.24,8.47c-4.68,0-7.1-2.37-7.24-7.13v-7.35c-0.15-4.46-2.71-8.28-7.69-11.48C68.2,69,62.38,67.41,55.69,67.41
		c-6.83,0-12.56,1.75-17.16,5.24c-4.61,3.49-6.91,7.84-6.91,13.04c0,9.51,6.54,15.15,19.61,16.94l12.92,1.78
		c25.25,3.42,37.88,13.89,37.88,31.42c0,10.7-4.07,19.35-12.22,25.96s-18.81,9.92-31.99,9.92c-12.29,0-22.96-3.49-31.99-10.47
		c0,1.49,0,2.9,0,4.23c0,5.35-2.53,8.02-7.58,8.02c-5.5,0-8.24-3.05-8.24-9.14c0,1.04,0.45-2.82,1.34-11.59
		c0.3-2.08,0.45-4.16,0.45-6.24c0-3.57-0.3-6.91-0.89-10.03c-0.6-3.12-0.89-5.57-0.89-7.35c0-5.2,2.37-7.8,7.13-7.8
		c3.12,0,5.09,0.75,5.91,2.23c0.81,1.49,1.3,5.42,1.45,11.81c0.15,6.39,3.49,11.59,10.03,15.6c6.54,4.01,14.85,6.02,24.96,6.02
		c7.28,0,13.29-1.86,18.05-5.57c4.75-3.71,7.13-8.39,7.13-14.04c0-10.1-8.02-15.97-24.07-17.6c-15.3-1.63-26.96-4.64-34.99-9.03
		c-8.02-4.38-12.03-12.07-12.03-23.06c0-10.4,3.92-18.83,11.77-25.29C33.2,55.93,43.41,52.7,56,52.7z"/>
	<path d="M212.92,102.39c0,5.65-0.37,9.1-1.11,10.36c-0.74,1.26-2.9,1.89-6.46,1.89h-70.86c-1.93,0-3.2,0.26-3.79,0.78
		c-0.6,0.52-0.89,1.38-0.89,2.56c0,11.14,3.34,20.43,10.03,27.85c6.69,7.43,15,11.14,24.96,11.14c6.54,0,12.51-1.78,17.94-5.35
		c5.42-3.57,8.95-8.1,10.58-13.59l2.01-6.46c1.04-3.57,3.49-5.35,7.35-5.35c5.49,0,8.24,2.82,8.24,8.47
		c0,9.66-4.9,18.24-14.71,25.74c-9.8,7.5-20.95,11.25-33.43,11.25c-15.6,0-28-5.24-37.21-15.71c-9.21-10.47-13.82-24.55-13.82-42.23
		c0-18.12,4.9-32.83,14.71-44.12c9.8-11.29,22.58-16.94,38.33-16.94c13.96,0,25.48,4.68,34.54,14.04
		C208.39,76.1,212.92,87.98,212.92,102.39z M132.03,96.6c0,2.08,1.63,3.12,4.9,3.12h53.26c3.12,0,4.68-1.04,4.68-3.12
		c0-7.87-2.97-14.71-8.91-20.5c-5.94-5.79-12.92-8.69-20.95-8.69c-8.32,0-15.9,3.01-22.73,9.02
		C135.45,82.45,132.03,89.17,132.03,96.6z"/>
	<path d="M254.39,74.89v69.19c0.15,7.57,2.18,11.35,6.08,11.35c0.9,0,2.78-0.37,5.63-1.11c1.8-0.3,3-0.45,3.6-0.45
		c4.95,0,7.43,2.53,7.43,7.58c0,4.9-3.04,7.35-9.1,7.35c-2.37,0-6.15-0.3-11.33-0.89c-5.18-0.59-9.18-0.89-11.99-0.89
		c-2.37,0-5.92,0.3-10.66,0.89c-4.74,0.59-8.22,0.89-10.43,0.89h-1.11c-6.22,0-9.33-2.67-9.33-8.02c0-4.6,2.55-6.91,7.65-6.91
		c0.3,0,0.82,0,1.57,0c0.9,0.21,1.57,0.31,2.03,0.31c3.75,0.83,5.92,1.25,6.52,1.25c2.7,0,4.38-1.15,5.06-3.46
		c0.68-2.31,1.09-8.31,1.24-18l0.23-15.65V83.64V43.83c-0.15-4.47-0.37-7.45-0.67-8.94c-1.04-3.43-3.12-5.14-6.24-5.14
		c-0.45,0-2.38,0.3-5.79,0.89c-1.64,0.3-2.97,0.45-4.01,0.45c-5.05,0-7.58-2.37-7.58-7.13c0-4.9,2.97-7.35,8.91-7.35
		c1.63,0,3.04,0.08,4.23,0.22l5.35,0.67c2.37,0.3,4.38,0.45,6.02,0.45c1.48,0,3.71-0.22,6.69-0.67c2.97-0.45,5.2-0.67,6.69-0.67
		c3.42,0,5.13,2.15,5.13,6.45c0,1.48-0.08,2.6-0.22,3.34C254.91,37.81,254.39,53.98,254.39,74.89z"/>
	<path d="M307.23,82.62l26.07,69.9L358.48,83c1.48-4.16,2.23-6.83,2.23-8.02c0-3.27-1.56-4.9-4.68-4.9c-1.19,0-2.94,0.22-5.24,0.67
		c-2.3,0.45-4.05,0.67-5.24,0.67c-4.9,0-7.35-2.41-7.35-7.25c0-5.12,3.57-7.68,10.7-7.68c0.3,0,0.89,0,1.78,0
		c0.74,0.11,1.34,0.16,1.78,0.16l9.36,0.95c2.08,0.6,4.23,0.89,6.46,0.89c2.97,0,7.87-0.42,14.71-1.25c4.16-0.5,7.13-0.75,8.91-0.75
		c6.39,0,9.58,2.49,9.58,7.46c0,4.98-2.6,7.47-7.8,7.47c-1.64,0-2.82-0.18-3.57-0.54c-2.23-0.53-3.79-0.8-4.68-0.8
		c-2.67,0-5.42,3.58-8.24,10.72l-31.42,80.4c-2.67,6.85-7.21,10.27-13.59,10.27c-6.09,0-10.47-3.43-13.15-10.3l-32.09-82.81
		c-2.08-5.52-4.53-8.28-7.35-8.28c-1.04,0-2.6,0.22-4.68,0.67c-2.08,0.45-3.64,0.67-4.68,0.67c-4.9,0-7.35-2.3-7.35-6.91
		c0-5.35,3.42-8.02,10.25-8.02c1.19,0,2.08,0.08,2.67,0.22l9.36,1.19c3.12,0.4,6.24,0.6,9.36,0.6c2.52,0,6.24-0.29,11.14-0.86
		l7.35-0.86c0.74-0.19,1.78-0.29,3.12-0.29c6.54,0,9.8,2.57,9.8,7.69c0,4.83-2.82,7.24-8.47,7.24c-1.78,0-3.05-0.09-3.79-0.27
		c-2.82-0.71-4.61-1.07-5.35-1.07c-2.38,0-3.57,1.05-3.57,3.14c0,1.04,0.3,2.54,0.89,4.48L307.23,82.62z"/>
	<path d="M447.16,82.62l26.07,69.9L498.41,83c1.48-4.16,2.23-6.83,2.23-8.02c0-3.27-1.56-4.9-4.68-4.9c-1.19,0-2.94,0.22-5.24,0.67
		c-2.3,0.45-4.05,0.67-5.24,0.67c-4.9,0-7.35-2.41-7.35-7.25c0-5.12,3.57-7.68,10.7-7.68c0.3,0,0.89,0,1.78,0
		c0.74,0.11,1.34,0.16,1.78,0.16l9.36,0.95c2.08,0.6,4.23,0.89,6.46,0.89c2.97,0,7.87-0.42,14.71-1.25c4.16-0.5,7.13-0.75,8.91-0.75
		c6.39,0,9.58,2.49,9.58,7.46c0,4.98-2.6,7.47-7.8,7.47c-1.64,0-2.82-0.18-3.57-0.54c-2.23-0.53-3.79-0.8-4.68-0.8
		c-2.67,0-5.42,3.58-8.24,10.72l-31.42,80.4c-2.67,6.85-7.21,10.27-13.59,10.27c-6.09,0-10.47-3.43-13.15-10.3l-32.09-82.81
		c-2.08-5.52-4.53-8.28-7.35-8.28c-1.04,0-2.6,0.22-4.68,0.67c-2.08,0.45-3.64,0.67-4.68,0.67c-4.9,0-7.35-2.3-7.35-6.91
		c0-5.35,3.42-8.02,10.25-8.02c1.19,0,2.08,0.08,2.67,0.22l9.36,1.19c3.12,0.4,6.24,0.6,9.36,0.6c2.52,0,6.24-0.29,11.14-0.86
		l7.35-0.86c0.74-0.19,1.78-0.29,3.12-0.29c6.54,0,9.8,2.57,9.8,7.69c0,4.83-2.82,7.24-8.47,7.24c-1.78,0-3.05-0.09-3.79-0.27
		c-2.82-0.71-4.61-1.07-5.35-1.07c-2.38,0-3.57,1.05-3.57,3.14c0,1.04,0.3,2.54,0.89,4.48L447.16,82.62z"/>
	<path d="M566.98,103.28v28.97c0,7.43,0.07,11.81,0.22,13.15c0.74,6.69,2.75,10.03,6.02,10.03c0.74,0,2.6-0.37,5.57-1.11
		c0.74-0.3,1.86-0.45,3.34-0.45c5.64,0,8.47,2.45,8.47,7.35c0,2.08-0.93,3.86-2.8,5.35c-1.86,1.48-4.21,2.23-7.04,2.23
		c-2.39,0-6-0.33-10.84-1c-4.85-0.67-8.46-1-10.85-1c-3.88,0-8.2,0.3-12.97,0.89c-5.81,0.74-9.69,1.11-11.63,1.11
		c-5.96,0-8.94-2.52-8.94-7.58c0-4.9,2.55-7.35,7.65-7.35c1.2,0,2.96,0.22,5.28,0.67c2.32,0.45,4.08,0.67,5.29,0.67
		c3.6,0,5.77-4.75,6.52-14.26c0-0.59,0-7.05,0-19.39v-18.27c0-12.33,0-18.79,0-19.39c-0.75-9.36-3-14.04-6.74-14.04
		c-1.2,0-2.89,0.26-5.06,0.78c-2.17,0.52-3.79,0.78-4.83,0.78c-5.4,0-8.1-2.37-8.1-7.13c0-5.05,3.27-7.58,9.8-7.58
		c2.82,0,4.83,0.08,6.02,0.22c4.75,0.6,7.8,0.89,9.14,0.89c1.19,0,3.01-0.18,5.46-0.56c2.45-0.37,4.27-0.56,5.46-0.56
		c4.31,0,6.46,2.9,6.46,8.69c0,0.6-0.06,1.49-0.18,2.67c-0.12,1.19-0.18,2.08-0.18,2.67c-0.12,1.19-0.24,5.79-0.36,13.82
		C567.04,90.66,566.98,96.9,566.98,103.28z M555.39,44.9c-3.42,0-6.35-1.23-8.8-3.68c-2.45-2.45-3.68-5.38-3.68-8.8
		c0-3.42,1.23-6.31,3.68-8.69c2.45-2.37,5.38-3.57,8.8-3.57c3.42,0,6.35,1.19,8.8,3.57c2.45,2.38,3.68,5.27,3.68,8.69
		c0,3.42-1.23,6.35-3.68,8.8C561.74,43.67,558.8,44.9,555.39,44.9z"/>
	<path d="M634.6,62.84v6.12c7.72-10.84,18.05-16.27,30.97-16.27c10.4,0,18.83,2.94,25.29,8.8c6.46,5.87,9.69,13.41,9.69,22.62
		c0,6.54-1.64,11.85-4.9,15.93c-3.27,4.09-7.58,6.13-12.92,6.13c-3.42,0-6.32-1.04-8.69-3.12c-2.38-2.08-3.57-4.6-3.57-7.58
		c0-2.37,0.89-4.49,2.67-6.35c1.78-1.86,3.86-2.79,6.24-2.79c0.45,0,1.41,0.22,2.9,0.67c0.89-1.78,1.34-3.42,1.34-4.9
		c0-4.31-1.89-7.95-5.68-10.92c-3.79-2.97-8.51-4.46-14.15-4.46c-11.59,0-19.31,5.2-23.18,15.6c-2.38,6.39-3.57,16.04-3.57,28.97
		v14.71c0,9.95,0.07,15.53,0.22,16.71c0.74,8.47,3.04,12.7,6.91,12.7c1.93,0,3.93-0.25,6.02-0.76c1.63-0.38,3.04-0.57,4.23-0.57
		c4.75,0,7.13,2.34,7.13,7.02c0,5.13-3.04,7.68-9.1,7.68h-0.89c-2.22,0-5.59-0.26-10.11-0.78c-4.52-0.52-7.88-0.78-10.1-0.78
		c-5.92,0-10.58,0.15-13.99,0.45l-12.44,1.11c-6.07,0-9.1-2.6-9.1-7.8c0-4.6,2.85-6.91,8.54-6.91c1.5,0,2.62,0.08,3.37,0.22
		l3.37,0.67c1.5,0.3,2.55,0.45,3.15,0.45c3.75,0,5.77-3.42,6.07-10.25v-11.36l-0.67-50.58c-0.45-8.76-2.67-13.15-6.69-13.15
		c-1.19,0-2.82,0.22-4.9,0.67c-2.08,0.45-3.72,0.67-4.9,0.67c-4.9,0-7.35-2.37-7.35-7.13c0-5.2,3.19-7.8,9.58-7.8
		c1.48,0,3.71,0.19,6.69,0.56c2.97,0.37,5.2,0.56,6.69,0.56c1.19,0,3.12-0.18,5.79-0.56c1.19-0.37,2.6-0.56,4.23-0.56
		C632.67,56.49,634.6,58.61,634.6,62.84z"/>
	<path d="M727.13,111.53l38.1-35.65c1.34-1.19,2.01-2.52,2.01-4.01c0-1.48-0.97-2.23-2.9-2.23c-1.49,0-3.64,0.3-6.46,0.89
		c-2.82,0.6-4.98,0.89-6.46,0.89c-5.2,0-7.8-2.37-7.8-7.13c0-5.2,3.27-7.8,9.81-7.8c1.63,0,3.71,0.15,6.24,0.45
		c10.25,1.19,18.05,1.78,23.4,1.78c2.97,0,5.5-0.15,7.58-0.45l9.14-1.34c2.08-0.3,3.79-0.45,5.13-0.45c7.28,0,10.92,2.57,10.92,7.69
		c0,4.83-2.53,7.24-7.58,7.24c-1.19,0-2.86-0.18-5.01-0.56c-2.15-0.37-3.83-0.56-5.01-0.56c-3.72,0-7.58,1.86-11.59,5.57
		l-23.4,21.39c-1.64,1.49-2.45,2.67-2.45,3.57c0,0.74,0.59,1.86,1.78,3.34l28.52,36.99c7.28,9.36,12.48,14.04,15.6,14.04
		c0.74,0,1.97-0.18,3.68-0.56c1.71-0.37,3.08-0.56,4.12-0.56c5.35,0,8.02,2.38,8.02,7.13c0,5.05-3.42,7.58-10.25,7.58
		c-2.67,0-6.65-0.3-11.92-0.89c-5.27-0.59-9.25-0.89-11.92-0.89c-2.38,0-5.83,0.3-10.36,0.89c-4.53,0.59-7.91,0.89-10.14,0.89
		c-5.65,0-8.47-2.52-8.47-7.58c0-4.75,2.67-7.13,8.02-7.13c1.48,0,2.68,0.08,3.57,0.22c2.67,0.74,4.38,1.11,5.13,1.11
		c1.34,0,2-0.52,2-1.56c0-0.15,0-0.37,0-0.67c-0.15-0.15-0.22-0.3-0.22-0.45l-2.23-3.12l-2.9-4.23l-22.28-29.64
		c-1.49-1.93-2.67-2.9-3.57-2.9c-0.59,0-1.71,0.75-3.34,2.23l-16.49,14.71v5.13c0,7.13,0.07,11.14,0.22,12.03
		c0.74,5.2,2.82,7.8,6.24,7.8c1.48,0,2.75-0.11,3.79-0.33c1.04-0.22,2.45-0.33,4.23-0.33c5.05,0,7.58,2.45,7.58,7.35
		c0,4.9-2.82,7.35-8.47,7.35c-2.53,0-6.35-0.33-11.48-1c-5.13-0.67-9.03-1-11.7-1c-3.42,0-7.35,0.3-11.81,0.89
		c-5.65,0.74-9.44,1.11-11.36,1.11c-5.79,0-8.69-2.45-8.69-7.35c0-4.9,2.82-7.35,8.47-7.35c1.19,0,2.6,0.15,4.23,0.45
		c2.37,0.45,4.01,0.67,4.9,0.67c3.56,0,5.57-2.82,6.02-8.47l0.67-8.69V48.02c-0.3-8.02-0.83-13.11-1.57-15.26
		c-0.75-2.15-2.33-3.23-4.73-3.23c-0.75,0-2.18,0.15-4.27,0.45c-2.1,0.75-4.2,1.11-6.29,1.11c-4.95,0-7.42-2.3-7.42-6.91
		c0-5.05,2.91-7.58,8.74-7.58c2.99,0,5.08,0.08,6.27,0.22c3.73,0.45,6.2,0.67,7.39,0.67c1.19,0,2.95-0.15,5.26-0.45
		c2.32-0.3,4-0.45,5.04-0.45h1.57c4.78,0,7.17,3.04,7.17,9.12V111.53z"/>
</g>
</svg>
